<svg width="18" height="16" viewBox="0 0 18 16" fill="none" xmlns="http://www.w3.org/2000/svg">
<path d="M7 6C7 5.44772 7.44772 5 8 5H10C10.5523 5 11 5.44772 11 6V14C11 14.5523 10.5523 15 10 15H8C7.44772 15 7 14.5523 7 14V6Z" stroke="black" stroke-width="2" stroke-linecap="round" stroke-linejoin="round"/>
<path d="M1 10C1 9.44772 1.44772 9 2 9H4C4.55228 9 5 9.44772 5 10V14C5 14.5523 4.55228 15 4 15H2C1.44772 15 1 14.5523 1 14V10Z" stroke="black" stroke-width="2" stroke-linecap="round" stroke-linejoin="round"/>
<path d="M13 2C13 1.44772 13.4477 1 14 1H16C16.5523 1 17 1.44772 17 2V14C17 14.5523 16.5523 15 16 15H14C13.4477 15 13 14.5523 13 14V2Z" stroke="black" stroke-width="2" stroke-linecap="round" stroke-linejoin="round"/>
</svg>
